<svg width="270" height="120" viewBox="0 0 270 120" fill="none" xmlns="http://www.w3.org/2000/svg">
<rect width="270" height="120" rx="4" fill="#F5F4FA"/>
<g clip-path="url(#clip0)">
<path d="M132.65 57.7351H134.982V68.2296H132.65V57.7351Z" fill="#2196F3"/>
<path d="M141.978 62.3993H144.31V68.2296H141.978V62.3993Z" fill="#2196F3"/>
<path d="M123.321 65.8975H125.653V68.2296H123.321V65.8975Z" fill="#2196F3"/>
<path d="M116.325 64.7314H118.657V68.2295H116.325V64.7314Z" fill="#2196F3"/>
<path d="M117.491 55.903H117.489C116.137 55.8991 114.95 56.8 114.59 58.1032C114.231 59.4067 114.787 60.7891 115.95 61.4791L115.95 61.4792C117.113 62.1692 118.594 61.9959 119.565 61.0556L119.82 60.8089L120.137 60.968L124.19 63.0016C124.458 63.1357 124.784 63.0732 124.985 62.8483L117.491 55.903ZM117.491 55.903C119.143 55.903 120.484 57.24 120.489 58.8911C120.484 59.0081 120.471 59.1245 120.452 59.2401L120.389 59.6056L120.721 59.7714L123.986 61.4043L124.329 61.5757L124.584 61.2893L133.318 51.4619C133.548 51.2034 133.938 51.1641 134.216 51.3719L142.756 57.7748L143.094 58.0278L143.4 57.7377L151.65 49.9249L151.806 49.777V49.5619V43.7424V43.2424H151.306H111.661H111.161V43.7424V70.5617V71.0617H111.661H151.306H151.806V70.5617V52.7748V51.6125L150.963 52.4118L143.602 59.3846C143.366 59.6072 143.004 59.6281 142.744 59.4337L142.444 59.8338L142.744 59.4337L134.274 53.087L133.906 52.8112L133.601 53.1549L124.985 62.8481L117.491 55.903ZM157.803 75.2259V75.7259H158.303H159.469C161.125 75.7259 162.467 77.0684 162.467 78.7241V83.3883C162.467 85.0441 161.125 86.3865 159.469 86.3865H103.498C101.842 86.3865 100.5 85.0441 100.5 83.3883V78.7241C100.5 77.0684 101.842 75.7259 103.498 75.7259H104.664H105.164V75.2259V40.2443C105.164 38.5886 106.507 37.2461 108.162 37.2461H154.805C156.46 37.2461 157.803 38.5886 157.803 40.2443V42.9345V44.0975L158.647 43.2974L163.637 38.5665L163.899 38.3188L163.746 37.9924C163.125 36.6595 163.555 35.0726 164.764 34.2354C165.974 33.3986 167.611 33.5554 168.639 34.6065C169.668 35.6577 169.789 37.2973 168.925 38.488L168.925 38.4882C168.062 39.6794 166.466 40.0742 165.147 39.424L164.835 39.2701L164.582 39.5095L157.959 45.7839L157.803 45.9318V46.1469V75.2259ZM156.315 45.5038L156.471 45.356V45.1414V40.2443C156.471 39.3242 155.725 38.5782 154.805 38.5782H108.162C107.242 38.5782 106.496 39.3242 106.496 40.2443V75.2259V75.7259H106.996H155.971H156.471V75.2259V48.3554V47.1929L155.627 47.9925L153.295 50.2022L153.139 50.3501V50.5651V71.7278C153.139 72.0956 152.84 72.3938 152.473 72.3938H110.495C110.127 72.3938 109.828 72.0956 109.828 71.7278V42.5764C109.828 42.2086 110.127 41.9103 110.495 41.9103H152.473C152.84 41.9103 153.139 42.2086 153.139 42.5764V47.3573V48.5221L153.983 47.7198L156.315 45.5038ZM125.653 77.0581H125.153V77.5581V78.7241C125.153 79.6442 125.899 80.3902 126.819 80.3902H136.148C137.068 80.3902 137.814 79.6442 137.814 78.7241V77.5581V77.0581H137.314H125.653ZM123.821 77.5581V77.0581H123.321H103.498C102.578 77.0581 101.832 77.804 101.832 78.7241V83.3883C101.832 84.3084 102.578 85.0544 103.498 85.0544H159.469C160.389 85.0544 161.135 84.3084 161.135 83.3883V78.7241C161.135 77.804 160.389 77.0581 159.469 77.0581H139.646H139.146V77.5581V78.7241C139.146 80.3798 137.803 81.7223 136.148 81.7223H126.819C125.164 81.7223 123.821 80.3798 123.821 78.7241V77.5581ZM168.131 36.7461C168.131 35.826 167.385 35.08 166.465 35.08C165.545 35.08 164.799 35.826 164.799 36.7461C164.799 37.6662 165.545 38.4121 166.465 38.4121C167.385 38.4121 168.131 37.6662 168.131 36.7461ZM117.491 60.5672C118.411 60.5672 119.157 59.8213 119.157 58.9012C119.157 57.9811 118.411 57.2351 117.491 57.2351C116.571 57.2351 115.825 57.9811 115.825 58.9012C115.825 59.8213 116.571 60.5672 117.491 60.5672Z" fill="#212121" stroke="black"/>
</g>
<defs>
<clipPath id="clip0">
<rect width="70" height="70" fill="white" transform="translate(100 25)"/>
</clipPath>
</defs>
</svg>
